<svg xmlns="http://www.w3.org/2000/svg" width="5963" height="2522" viewBox="0 0 5963 2522" fill="none" role="img" aria-hidden="true" class="svg-device-frame device--pc device--mackbook-air15m4" data-author="MartinDube.net"><path fill="url(#a)" d="M4582 0c48.6 0 88 39.399 88 88v2047c0 48.6-39.4 88-88 88H1352c-48.6 0-88-39.4-88-88V88c0-48.601 39.4-88 88-88zM1366 63c-22.64 0-41 18.356-41 41v1966c0 1.66 1.34 3 3 3h3278c1.66 0 3-1.34 3-3V104c0-22.644-18.36-41-41-41z"/><path fill="#000" d="M4577 19c41.42 0 75 33.579 75 75v2019c0 1.66-1.34 3-3 3H1285c-1.66 0-3-1.34-3-3V94c0-41.421 33.58-75 75-75zM1366 63c-22.64 0-41 18.356-41 41v1966c0 1.66 1.34 3 3 3h3278c1.66 0 3-1.34 3-3V104c0-22.644-18.36-41-41-41z"/><path fill="url(#b)" d="M0 2378c0-5.52 4.477-10 10-10h5943c5.52 0 10 4.48 10 10v44c0 55.23-44.77 100-100 100H100c-55.229 0-100-44.77-100-100z"/><path fill="url(#c)" d="M1264 2192h3406l1285 176H9z"/><path fill="url(#d)" d="M1436 2223h3070l338.56 49.04c4.91.71 4.39 7.96-.58 7.96H1169.44c-4.87 0-5.51-7.05-.72-7.93z"/><path stroke="#fff" stroke-opacity=".8" stroke-width="2" d="m1166.82 2272.02 271-50M4506.15 2222.01l339 50"/><path fill="url(#e)" d="M1944.53 2284.11c.31-.07.63-.11.95-.11h1994.97q.555 0 1.08.15l139.41 38.92c2.24.63 1.79 3.93-.54 3.93H1785.61c-2.36 0-2.77-3.38-.47-3.94z" opacity=".9"/><path fill="url(#f)" d="M1264 2192h3406l1285 176H9z" opacity=".8"/><path fill="url(#g)" d="M2466 2369h902v22c0 16.57-13.43 30-30 30h-842c-16.57 0-30-13.43-30-30z" opacity=".6"/><defs><linearGradient id="a" x1="2781" x2="2856.5" y1="0" y2="2223" gradientUnits="userSpaceOnUse"><stop stop-color="#999"/><stop offset=".266" stop-color="#bbb"/><stop offset=".737" stop-color="#999"/><stop offset=".933" stop-color="#777"/></linearGradient><linearGradient id="b" x1="2981.5" x2="2981.5" y1="2368" y2="2522" gradientUnits="userSpaceOnUse"><stop stop-color="#eee"/><stop offset=".087" stop-color="#bbb"/><stop offset=".618" stop-color="#ccc"/><stop offset=".707" stop-color="#777"/><stop offset=".767" stop-color="#444"/><stop offset=".949" stop-color="#888"/></linearGradient><linearGradient id="c" x1="0" x2="5962.5" y1="2280" y2="2280" gradientUnits="userSpaceOnUse"><stop offset=".019" stop-color="#bbb"/><stop offset=".202" stop-color="#ccc"/><stop offset=".218" stop-color="#999"/><stop offset=".235" stop-color="#ddd"/><stop offset=".759" stop-color="#ddd"/><stop offset=".775" stop-color="#999"/><stop offset=".791" stop-color="#ccc"/><stop offset=".987" stop-color="#bbb"/></linearGradient><linearGradient id="d" x1="3012.5" x2="3012.5" y1="2223" y2="2280" gradientUnits="userSpaceOnUse"><stop stop-color="#999" stop-opacity=".8"/><stop offset=".875" stop-color="#999"/><stop offset=".981" stop-color="#888"/></linearGradient><linearGradient id="e" x1="2932" x2="2932" y1="2284" y2="2327" gradientUnits="userSpaceOnUse"><stop stop-color="#aaa"/><stop offset="1" stop-color="#ccc"/></linearGradient><linearGradient id="f" x1="2982" x2="2982" y1="2192" y2="2331.5" gradientUnits="userSpaceOnUse"><stop stop-color="#444"/><stop offset=".313" stop-color="#8f8f8f" stop-opacity=".9"/><stop offset=".495" stop-color="#ddd" stop-opacity="0"/></linearGradient><radialGradient id="g" cx="0" cy="0" r="1" gradientTransform="matrix(-999 0 0 -57.592 2917 2369)" gradientUnits="userSpaceOnUse"><stop offset=".006" stop-color="#ccc" stop-opacity=".7"/><stop offset="1" stop-color="#777" stop-opacity=".9"/></radialGradient></defs></svg>